<?xml version="1.0" ?><!DOCTYPE svg  PUBLIC '-//W3C//DTD SVG 1.1//EN'  'http://www.w3.org/Graphics/SVG/1.1/DTD/svg11.dtd'><svg height="512px" style="enable-background:new 0 0 512 512;" version="1.1" viewBox="0 0 512 512" width="512px" xml:space="preserve" xmlns="http://www.w3.org/2000/svg" xmlns:xlink="http://www.w3.org/1999/xlink"><g id="_x37_03-_refresh__x2C__user_interface__x2C__ui_m"><g><g><path d="M256.475,492.847c-114.411,0-207.49-93.034-207.49-207.39c0-46.967,16.155-92.98,45.488-129.563     c28.885-36.024,69.406-61.68,114.1-72.241c3.607-0.855,7.22,1.379,8.071,4.985c0.852,3.605-1.38,7.22-4.985,8.071     c-87.88,20.767-149.257,98.383-149.257,188.747c0,106.957,87.061,193.974,194.073,193.974     c107.013,0,194.074-87.017,194.074-193.974c0-3.705,3.003-6.708,6.708-6.708s6.708,3.003,6.708,6.708     c0,55.402-21.581,107.485-60.769,146.653C364.01,471.277,311.902,492.847,256.475,492.847z"/></g><g><path d="M210.115,160.212c-1.191,0-2.381-0.316-3.438-0.948c-2.028-1.21-3.27-3.398-3.27-5.76V26.814     c0-2.362,1.243-4.55,3.271-5.761c2.029-1.21,4.545-1.265,6.623-0.144l117.451,63.367c2.17,1.172,3.523,3.439,3.522,5.905     c0,2.466-1.354,4.733-3.524,5.904l-117.45,63.322C212.304,159.945,211.209,160.212,210.115,160.212z M216.824,38.057v104.209     l96.61-52.086L216.824,38.057z"/></g></g></g><g id="Layer_1"/></svg>